<?xml version="1.0" ?><svg id="Layer_1" style="enable-background:new 0 0 512 512;" version="1.1" viewBox="0 0 512 512" xml:space="preserve" xmlns="http://www.w3.org/2000/svg" xmlns:xlink="http://www.w3.org/1999/xlink"><style type="text/css">
	.st0{fill:#2B79C2;}
	.st1{fill:#3B4652;}
	.st2{fill:#333333;}
</style><g><path class="st0" d="M169.9,239.7c-0.5,0-1,0-1.4,0c-14.5,0.8-26.1,12.8-26.1,27.5c0,15.2,12.3,27.5,27.5,27.5   c14.7,0,26.8-11.6,27.5-26.1c0-0.5,0-1,0-1.4C197.4,252.1,185.1,239.7,169.9,239.7z"/><path class="st0" d="M249.5,239.8c-0.5,0-1,0-1.4,0c-15.2,0-27.5,12.3-27.5,27.5c0,0.5,0,1,0,1.4c0.7,14.5,12.8,26.1,27.5,26.1   c15.2,0,27.5-12.3,27.5-27.5C275.6,252.6,264,240.5,249.5,239.8z"/><path class="st1" d="M276,111c-20.8-8.2-43.4-12.8-67.1-12.8c-100.5,0-182,81.5-182,182c0,100.6,81.5,182.1,182,182.1   c100.6,0,182.1-81.5,182.1-182.1c0-47.5-18.2-90.7-48-123.1C324.6,137.1,301.8,121.2,276,111z M303.9,272.8   c0,25.3-9.9,48.2-26,65.2l35.4,35.4c3.1,3.1,3.1,8.2,0,11.3c-1.6,1.6-3.6,2.3-5.7,2.3s-4.1-0.8-5.7-2.3L266,348.7   c-0.6,0.5-1.3,0.9-1.9,1.4v15.7c0,9.4-7.6,17-17,17h-4.6v-19.7c0-4.4-3.6-8-8-8s-8,3.6-8,8v19.7h-9.5v-19.7c0-4.4-3.6-8-8-8   s-8,3.6-8,8v19.7h-9.5v-19.7c0-4.4-3.6-8-8-8s-8,3.6-8,8v19.7h-4.6c-9.4,0-17-7.6-17-17v-15.7c-0.6-0.5-1.3-0.9-1.9-1.4l-36.1,36.1   c-1.6,1.6-3.6,2.3-5.7,2.3c-2,0-4.1-0.8-5.7-2.3c-3.1-3.1-3.1-8.2,0-11.3L140,338c-16.1-17-26-39.9-26-65.2c0-21.4,7.1-41.2,19-57   l-28.5-28.5c-3.1-3.1-3.1-8.2,0-11.3c3.1-3.1,8.2-3.1,11.3,0l27.9,27.9c17-16.1,40-26,65.2-26c25.3,0,48.2,9.9,65.2,26l27.9-27.9   c3.1-3.1,8.2-3.1,11.3,0c3.1,3.1,3.1,8.2,0,11.3l-28.5,28.5C296.8,231.6,303.9,251.4,303.9,272.8z"/><path class="st0" d="M460.9,56.2c-4.3,0-8.4,1.1-11.9,3.1c-19.1-12.9-38.7-17.5-58.1-13.5c-30.2,6.3-51,31.4-58.7,42.2l-20.2-14   c-3.9-2.7-9.3-1.7-12,2.2l-14.7,21.3c25.1,10.5,48.1,26.4,67,46.1l14.6-21.2c2.7-3.9,1.7-9.3-2.2-12l-19.4-13.4   c6.5-9,24.4-30.6,48.8-35.6c14.5-3,29.3,0.4,44.2,10c-1.1,2.8-1.7,5.8-1.7,8.9c0,13.4,10.8,24.2,24.2,24.2   c13.4,0,24.2-10.8,24.2-24.2C485.1,67,474.3,56.2,460.9,56.2z"/></g></svg>