<svg xmlns="http://www.w3.org/2000/svg" viewBox="0 0 448 512"><!--!Font Awesome Free 6.5.1 by @fontawesome - https://fontawesome.com License - https://fontawesome.com/license/free Copyright 2024 Fonticons, Inc.--><path d="M232.3 511.9c-1-3.3-1.7-15.8-1.4-24.6 .6-15.9 1-24.7 1.4-28.8 .6-6.2 2.9-20.7 3.3-21.4 .6-1 .4-27.9-.2-33.1-.3-2.6-.6-11.9-.7-20.7-.1-16.5-.5-20.1-2.7-24.8-1.1-2.3-1.2-3.8-1-11.4a92.4 92.4 0 0 0 -.3-12.7c-2-13-3.5-27.7-3.3-33.9s.4-7.2 2.1-9.7c3.1-4.7 6.5-14 8.6-23.3 2.3-9.9 3.9-17.2 4.6-20.7a109.5 109.5 0 0 1 4.4-15.1c2.3-6.3 2.5-15.4 .4-15.4-.3 0-1.4 1.2-2.4 2.7s-4.8 4.8-8.3 7.4c-8.4 6.1-11.7 9.4-12.7 12.6s-1 7.2-.2 7.8c.3 .2 1.3 2.4 2.1 4.9a28.8 28.8 0 0 1 .7 15.4c-.4 1.8-1 5.5-1.5 8.2s-1 6.5-1.3 8.2a9.9 9.9 0 0 1 -1.6 4.3c-1 1-1.1 .9-2.1-.5a14.9 14.9 0 0 1 -1.4-4.8c-.3-1.7-1.6-7.1-3.1-11.9-3.3-10.9-3.5-16.2-1-21a14.2 14.2 0 0 0 1.7-4.6c0-2.4-2.2-5.3-7.4-9.9-7-6.2-8.6-7.9-10.2-11.3-1.7-3.6-3.1-4.1-4.5-1.5-1.8 3-2.6 9.1-3 22l-.3 12.2 2 2.3c3.2 3.7 12.1 16.5 13.8 19.8 3.4 6.7 4.3 11.7 4.4 23.6s1 22.8 2 24.7c.4 .7 .5 1.4 .3 1.5s.4 2.1 1.3 4.3a38.1 38.1 0 0 1 2.1 9 91 91 0 0 0 1.7 10.4c2.2 9.6 2.8 14.1 2.4 20.1-.2 3.3-.5 11.1-.7 17.3-1.3 41.8-1.9 58-2 61.2-.1 2-.4 11.5-.6 21.1-.4 16.3-1.3 27.4-2.4 28.7-.6 .7-8.1-4.9-12.5-9.5-3.8-3.9-4-4.8-2.8-10 .7-3 2.3-18.3 3.3-32.6 .4-4.8 .8-10.5 1-12.7 .8-9.4 1.7-20.4 2.6-34.8 .6-8.5 1.3-16.4 1.7-17.7s.9-9.9 1.1-19.1l.4-16.8-2.3-4.3c-1.7-3.3-4.9-6.9-13.2-15.3-6-6.1-11.8-12.3-12.9-13.9l-2-2.8 .8-10.9c1.1-15.7 1.1-48.6 0-59.1l-.9-8.7-3.3-4.5c-5.9-8.1-5.8-7.8-6.2-33.3-.1-6.1-.4-11.5-.6-12.1-.8-1.9-3.1-2.7-8.5-3.1-8.9-.6-11-1.9-23.9-14.6-6.2-6-12.3-12-13.8-13.2-2.8-2.4-2.8-2-.6-9.6l1.4-4.7-1.7-3a32.2 32.2 0 0 0 -2.6-4.1c-1.3-1.5-5.5-10.9-6-13.5a4.2 4.2 0 0 1 .9-3.9c2.2-2.9 3.4-5.7 4.5-10.7 2.3-11.2 7.7-26.1 10.6-29.2 3.2-3.5 7.7-1 9.4 5 1.3 4.8 1.4 9.8 .1 18.6a101.2 101.2 0 0 0 -1 11.1c0 4 .2 4.7 2.3 7.4 3.3 4.4 7.7 7.4 15.2 10.5a18.7 18.7 0 0 1 4.7 2.9c11.2 10.7 18.6 16.2 23 16.9 5.2 .8 8 4.5 10 13.4 1.3 5.7 4 11.1 5.5 11.1a9.4 9.4 0 0 0 3.3-1.4c2-1.2 2.3-1.7 2.3-4.2a132.9 132.9 0 0 0 -2-17.8c-.4-1.7-.8-4.1-.9-5.4s-.6-3.9-1-5.7c-2.6-11.2-3.7-15.5-4.1-16-1.6-2-4.1-10.2-4.9-15.9-1.6-11.1-4-14.2-12.9-17.4A43.2 43.2 0 0 1 165.2 78c-1.2-1-4-3.2-6.4-5.1s-4.4-3.5-4.6-3.8a22.7 22.7 0 0 0 -2.7-2c-6.2-4.2-8.8-7-11.3-12l-2.4-5-.2-13-.2-13 6.9-6.6c4-3.8 8.5-7.4 10.6-8.4 3.3-1.7 4.5-1.9 11.4-2 8.5-.2 10.1 0 11.7 1.6s1.4 6.4-.3 8.5a6.7 6.7 0 0 0 -1.3 2.3c0 .6-2.6 4.9-5.4 9a30.4 30.4 0 0 0 -2.4 6.8c20.4 13.4 21.6 3.8 14.1 29L194 66.9c3.1-8.7 6.5-17.3 8.6-26.2 .3-7.6-12-4.2-15.4-8.7-2.3-5.9 3.1-14.2 6.1-19.2 1.6-2.3 6.6-4.7 8.8-4.2 .9 .2 4.2-.4 7.4-1.3a45.3 45.3 0 0 1 7.6-1.7 29.6 29.6 0 0 0 6-1.3c3.7-1.1 4.5-1.2 6.4-.4a29.5 29.5 0 0 0 5.8 1.4 18.2 18.2 0 0 1 6 1.9 22.7 22.7 0 0 0 5 2.2c2.5 .7 3 .6 7.1-1.7l4.4-2.4L268.3 5c10.4-.4 10.8-.5 15.3-2.7L288.2 0l2.5 1.4c1.8 1 3.1 2.7 4.9 6 2.4 4.5 2.4 4.6 1.4 7.4-.9 2.4-.9 3.3-.1 6.4a35.8 35.8 0 0 0 2.1 5.9 13.6 13.6 0 0 1 1.3 4c.3 4.3 0 5.3-2.4 6.9-2.2 1.5-7 7.9-7 9.3a14.8 14.8 0 0 1 -1.1 3c-5 11.5-6.8 13.6-14.3 17-9.2 4.2-12.3 5.2-16.2 5.2-3.1 0-4 .3-4.5 1.3a18.3 18.3 0 0 1 -4.1 3.7 13.6 13.6 0 0 0 -4.4 4.8 5.9 5.9 0 0 1 -2.5 2.9 6.9 6.9 0 0 0 -2.5 1.7 67.6 67.6 0 0 1 -7 5.4c-3.3 2.3-6.9 5-7.9 6A7.3 7.3 0 0 1 224 100a5.8 5.8 0 0 0 -2.1 1.7c-1.3 1.4-1.5 2.1-1.1 4.6a36.5 36.5 0 0 0 1.4 5.9c1.3 3.8 1.3 7.9 0 10.6s-.9 6.7 1.4 9.6c2 2.6 2.2 4.6 .7 8.8a33.5 33.5 0 0 0 -1.1 8.9c0 4.9 .2 6.3 1.5 8.4s1.8 2.5 3.2 2.3c2-.2 2.3-1.1 4.7-12.1 2.2-10 3.7-11.9 13.8-17.1 2.9-1.5 7.5-4 10-5.4s6.8-3.7 9.4-4.9a40.1 40.1 0 0 0 15.2-11.7c7.1-8.8 10-16.2 12.9-33.3a18.4 18.4 0 0 1 2.9-7.7 20.4 20.4 0 0 0 2.9-7.3c1-5.3 2.9-9.1 5.6-11.5 4.7-4.2 6-1.1 4.6 10.9-.5 3.9-1.1 10.3-1.4 14.4l-.6 7.4 4.5 4.1 4.5 4.1 .1 8.4c.1 4.6 .5 9.5 .9 10.9l.8 2.5-6.4 6.3c-8.5 8.3-12.9 13.9-16.8 21.6-1.8 3.5-3.7 7.1-4.4 8-2.2 3.1-6.5 13-8.8 20.3l-2.3 7.2-7 6.5c-3.8 3.6-8 7.3-9.2 8.2-3.1 2.3-4.3 5.2-4.3 10a14.6 14.6 0 0 0 1.6 7.3 42 42 0 0 1 2.1 4.8 9.3 9.3 0 0 0 1.6 2.9c1.4 1.6 1.9 16.1 .8 23.2-.7 4.5-3.6 12-4.7 12-1.8 0-4.1 9.3-5.1 20.7-.2 2-.6 5.9-1 8.7s-1 10-1.4 16.1c-.8 12.2-.2 18.8 2 23.2 3.4 6.7 .5 12.7-11 22.8l-4 3.5 .1 5.2a40.8 40.8 0 0 0 1.1 8.9c4.6 16 4.7 16.9 4.4 37.1-.5 26.4-.3 40.3 .6 44.2a61.3 61.3 0 0 1 1.1 7c.2 2 .7 5.3 1.1 7.4 .5 2.3 .8 11 .8 22.7v19.1l-1.8 2.6c-2.7 3.9-15.1 13.5-15.5 12.3zm29.5-45.1c-.2-.3-.3-6.9-.3-14.6 0-14.1-.9-27.5-2.3-34.5-.4-2-.8-9.7-.9-17.1-.2-11.9-1.4-24.4-2.6-26.4-.7-1.1-3-17.7-3-21.3 0-4.2 1-6 5.3-9.1s4.9-3.1 5.5-.7c.3 1.1 1.5 5.6 2.6 10 3.9 15.1 4.1 16.3 4.1 21.7-.1 5.8-.1 6.1-1.7 17.7-1 7.1-1.2 12.4-1 28.4 .2 19.4-.6 35.7-2 41.3-.7 2.8-2.8 5.5-3.4 4.4zm-71-37.6a101 101 0 0 1 -1.7-10.8 100.5 100.5 0 0 0 -1.7-10.8 37.5 37.5 0 0 1 -1-6.5c-.3-3.2-.9-7.5-1.3-9.5-1-4.8-3.4-19.4-3.4-21.1 0-.7-.3-4.1-.7-7.4-.7-6.2-.8-27.7-.2-28.3 1-1 6.6 2.8 11.3 7.4l5.3 5.3-.5 6.5c-.3 3.6-.6 10.2-.8 14.8s-.5 9.9-.7 11.7-.6 9.4-.9 16.7c-.8 17.4-1.9 31.3-2.7 32a.6 .6 0 0 1 -1-.1zm-87.2-266.6c21.1 12.8 17.8 14.2 28.5 17.7 13 4.3 18.9 7.1 23.2 16.9C111.6 233.3 86.3 255 78.6 268c-31 52-6 101.6 62.8 87.2-14.2 29.2-78 28.6-98.7-4.9-24.7-40-22.1-118.3 61-187.7zm210.8 179c56.7 6.9 82.3-37.7 46.5-89.2 0 0-26.9-29.3-64.3-68 3-15.5 9.5-32.1 30.6-53.8 89.2 63.5 92 141.6 92.5 149.4 4.3 70.6-78.7 91.2-105.3 61.7z"/></svg>